<svg width="19" height="20" viewBox="0 0 19 20" fill="none" xmlns="http://www.w3.org/2000/svg">
<g clip-path="url(#clip0)">
<path fill-rule="evenodd" clip-rule="evenodd" d="M1.21852 5.92243C2.64999 2.59723 5.92982 0.426758 9.56756 0.426758C13.71 0.426758 17.331 3.23084 18.3697 7.24417C18.4467 7.54075 18.2684 7.84357 17.9718 7.92055C17.6751 7.99737 17.3723 7.81922 17.2955 7.52249C16.3832 3.9984 13.2089 1.54033 9.56756 1.54033C6.38818 1.54033 3.52409 3.42277 2.25715 6.31368L2.67043 6.13929C2.95266 6.02043 3.27795 6.15277 3.39681 6.43501C3.51568 6.71739 3.38333 7.04253 3.10095 7.1614L1.43567 7.8643C1.15343 7.98317 0.828145 7.85082 0.709279 7.56859L0.00651925 5.9033C-0.112347 5.62106 0.0200004 5.29578 0.30238 5.17691C0.584615 5.05804 0.909757 5.19039 1.02862 5.47263L1.21852 5.92243ZM11.2801 6.51111V8.51357C11.2801 8.90699 10.8599 9.22865 10.4282 8.9857L9.46131 8.4998L8.44718 9.00933C8.07449 9.19633 7.64454 8.91685 7.64483 8.51357L7.64251 6.51111H6.23206V12.8952H12.6904V6.51111H11.2801ZM10.1665 6.51111H8.75608V7.61323C9.52741 7.22561 9.39028 7.22315 10.1665 7.61323V6.51111ZM5.67542 5.39754C5.36796 5.39754 5.11863 5.64687 5.11863 5.95432V13.452C5.11863 13.7595 5.36796 14.0088 5.67542 14.0088H13.2473C13.5548 14.0088 13.8041 13.7595 13.8041 13.452V5.95432C13.8041 5.64687 13.5548 5.39754 13.2473 5.39754H5.67542ZM18.9193 13.7286C19.0382 14.0108 18.9058 14.3361 18.6234 14.455C18.3412 14.5739 18.0159 14.4415 17.897 14.1593L17.7073 13.7095C16.2758 17.0347 12.9958 19.2051 9.35824 19.2051C5.21576 19.2051 1.59483 16.4011 0.555913 12.3877C0.479085 12.0912 0.657239 11.7882 0.953969 11.7114C1.2507 11.6345 1.55352 11.8127 1.63035 12.1094C2.54243 15.6335 5.71688 18.0916 9.35824 18.0916C12.5376 18.0916 15.4017 16.2091 16.6687 13.3181L16.2554 13.4926C15.9731 13.6115 15.6479 13.4791 15.529 13.1968C15.4101 12.9145 15.5425 12.5894 15.8249 12.4704L17.4901 11.7676C17.7724 11.6486 18.0977 11.7811 18.2165 12.0633L18.9193 13.7286Z" fill="#8D8D8D"/>
</g>
<defs>
<clipPath id="clip0">
<rect width="19" height="19" fill="white" transform="translate(0 0.31543)"/>
</clipPath>
</defs>
</svg>
