<svg width="19" height="18" viewBox="0 0 19 18" fill="none" xmlns="http://www.w3.org/2000/svg">
<path d="M18.1826 4.18567C18.1 4.10675 18.0017 4.04418 17.8934 4.00157C17.7851 3.95897 17.669 3.93719 17.5517 3.9375H16.9219V2.53125C16.9216 2.30755 16.8277 2.09309 16.6607 1.93491C16.4938 1.77673 16.2674 1.68775 16.0312 1.6875H3.21467C2.51956 1.68751 1.85293 1.94911 1.36141 2.41476C0.869895 2.88041 0.59376 3.51196 0.59375 4.17048V13.8295C0.59376 14.488 0.869895 15.1196 1.36141 15.5852C1.85293 16.0509 2.51956 16.3125 3.21467 16.3125H17.5166C17.7522 16.3121 17.978 16.2234 18.1449 16.0658C18.3117 15.9083 18.406 15.6946 18.4073 15.4715L18.4423 4.78413C18.443 4.67305 18.4204 4.56293 18.3758 4.46019C18.3313 4.35745 18.2656 4.26413 18.1826 4.18567ZM17.2207 15.1875H3.21467C2.83451 15.1875 2.46991 15.0444 2.20109 14.7898C1.93227 14.5351 1.78125 14.1897 1.78125 13.8295V4.17048C1.78125 3.81032 1.93227 3.46491 2.20109 3.21024C2.46991 2.95557 2.83451 2.8125 3.21467 2.8125H15.7344V3.9375H3.26562V5.0625H17.2539L17.2207 15.1875Z" fill="#8D8D8D"/>
<path d="M14.5469 9.28125H15.7344V10.4062H14.5469V9.28125Z" fill="#8D8D8D"/>
</svg>
