<svg width="20" height="20" viewBox="0 0 20 20" fill="none" xmlns="http://www.w3.org/2000/svg">
<path d="M5 11.25H8.75V12.5H5V11.25Z" fill="#8D8D8D"/>
<path d="M5 13.75H11.25V15H5V13.75Z" fill="#8D8D8D"/>
<path d="M16.25 2.5H3.75C3.41858 2.50033 3.10083 2.63213 2.86648 2.86648C2.63213 3.10083 2.50033 3.41858 2.5 3.75V16.25C2.50033 16.5814 2.63213 16.8992 2.86648 17.1335C3.10083 17.3679 3.41858 17.4997 3.75 17.5H16.25C16.5814 17.4997 16.8992 17.3679 17.1335 17.1335C17.3679 16.8992 17.4997 16.5814 17.5 16.25V3.75C17.4997 3.41858 17.3679 3.10083 17.1335 2.86648C16.8992 2.63213 16.5814 2.50033 16.25 2.5ZM11.25 3.75V6.25H8.75V3.75H11.25ZM3.75 16.25V3.75H7.5V7.5H12.5V3.75H16.25L16.2506 16.25H3.75Z" fill="#8D8D8D"/>
</svg>
