<svg width="18" height="18" viewBox="0 0 18 18" fill="none" xmlns="http://www.w3.org/2000/svg">
<g clip-path="url(#clip0)">
<path d="M9.20925 1.25221C9.07494 1.19838 8.92506 1.19838 8.79075 1.25221L2.07675 3.93758L4.78125 5.01871L11.7045 2.25008L9.20925 1.25221ZM13.2188 2.85646L6.2955 5.62508L9 6.70621L15.9233 3.93758L13.2188 2.85646ZM16.875 4.76896L9.5625 7.69396V16.6062L16.875 13.6812V4.77008V4.76896ZM8.4375 16.6073V7.69283L1.125 4.76896V13.6823L8.4375 16.6073ZM8.37337 0.207083C8.77564 0.0462068 9.22436 0.0462068 9.62663 0.207083L17.6467 3.41558C17.751 3.45737 17.8404 3.52942 17.9034 3.62246C17.9663 3.71549 18 3.82525 18 3.93758V13.6823C17.9999 13.9071 17.9324 14.1267 17.8062 14.3128C17.6801 14.4989 17.5011 14.6429 17.2924 14.7263L9.20925 17.9596C9.07494 18.0134 8.92506 18.0134 8.79075 17.9596L0.70875 14.7263C0.499783 14.6431 0.32056 14.4992 0.194222 14.3131C0.0678844 14.127 0.00023212 13.9073 0 13.6823L0 3.93758C2.61449e-05 3.82525 0.0336867 3.71549 0.0966454 3.62246C0.159604 3.52942 0.248977 3.45737 0.35325 3.41558L8.37337 0.207083Z" fill="#8D8D8D"/>
</g>
<defs>
<clipPath id="clip0">
<rect width="18" height="18" fill="white"/>
</clipPath>
</defs>
</svg>
