<svg width="19" height="19" viewBox="0 0 19 19" fill="none" xmlns="http://www.w3.org/2000/svg">
<path d="M9.50011 8.97239C10.2308 8.97239 10.9451 8.75571 11.5526 8.34976C12.1602 7.94381 12.6337 7.36682 12.9133 6.69175C13.193 6.01667 13.2661 5.27384 13.1236 4.55719C12.981 3.84054 12.6292 3.18225 12.1125 2.66558C11.5958 2.1489 10.9375 1.79704 10.2209 1.65449C9.50421 1.51193 8.76138 1.5851 8.08631 1.86472C7.41123 2.14434 6.83424 2.61787 6.42829 3.22542C6.02234 3.83297 5.80566 4.54725 5.80566 5.27794C5.80566 6.25777 6.1949 7.19747 6.88774 7.89031C7.58058 8.58315 8.52028 8.97239 9.50011 8.97239ZM9.50011 2.63905C10.022 2.63905 10.5322 2.79382 10.9662 3.08379C11.4002 3.37375 11.7384 3.78589 11.9381 4.26808C12.1379 4.75028 12.1901 5.28087 12.0883 5.79276C11.9865 6.30466 11.7351 6.77486 11.3661 7.14392C10.997 7.51297 10.5268 7.7643 10.0149 7.86613C9.50304 7.96795 8.97244 7.91569 8.49025 7.71596C8.00806 7.51623 7.59592 7.17799 7.30595 6.74403C7.01599 6.31007 6.86122 5.79987 6.86122 5.27794C6.86122 4.57807 7.13924 3.90685 7.63413 3.41197C8.12902 2.91708 8.80023 2.63905 9.50011 2.63905Z" fill="#8D8D8D"/>
<path d="M16.0814 12.862C15.235 11.9675 14.2151 11.2549 13.0839 10.7679C11.9528 10.281 10.7342 10.0298 9.50267 10.0298C8.27114 10.0298 7.05256 10.281 5.92141 10.7679C4.79026 11.2549 3.77031 11.9675 2.92392 12.862C2.74042 13.058 2.6385 13.3166 2.63892 13.5851V16.3612C2.63892 16.6412 2.75013 16.9096 2.94808 17.1076C3.14604 17.3056 3.41452 17.4168 3.69447 17.4168H15.3056C15.5855 17.4168 15.854 17.3056 16.052 17.1076C16.2499 16.9096 16.3611 16.6412 16.3611 16.3612V13.5851C16.363 13.3173 16.263 13.0589 16.0814 12.862ZM15.3056 16.3612H3.69447V13.5798C4.44245 12.7922 5.34288 12.165 6.34094 11.7364C7.339 11.3079 8.41384 11.0869 9.50003 11.0869C10.5862 11.0869 11.6611 11.3079 12.6591 11.7364C13.6572 12.165 14.5576 12.7922 15.3056 13.5798V16.3612Z" fill="#8D8D8D"/>
</svg>
