<svg width="22" height="22" viewBox="0 0 22 22" fill="none" xmlns="http://www.w3.org/2000/svg">
<path d="M19.7361 13.2639L17.875 11.4029V8.9375C17.8729 7.23376 17.2391 5.59133 16.0962 4.3278C14.9533 3.06427 13.3825 2.26939 11.6875 2.09687V0.6875H10.3125V2.09687C8.61752 2.26939 7.04671 3.06427 5.90382 4.3278C4.76092 5.59133 4.12713 7.23376 4.125 8.9375V11.4029L2.26394 13.2639C2.135 13.3928 2.06254 13.5677 2.0625 13.75V15.8125C2.0625 15.9948 2.13493 16.1697 2.26386 16.2986C2.3928 16.4276 2.56766 16.5 2.75 16.5H7.5625V17.0342C7.54754 17.9064 7.85497 18.7534 8.42585 19.413C8.99674 20.0725 9.79093 20.4982 10.6562 20.6085C11.1342 20.6559 11.6167 20.6027 12.0729 20.4524C12.5291 20.3021 12.9487 20.058 13.3049 19.7358C13.661 19.4136 13.9458 19.0204 14.1408 18.5815C14.3359 18.1426 14.437 17.6678 14.4375 17.1875V16.5H19.25C19.4323 16.5 19.6072 16.4276 19.7361 16.2986C19.8651 16.1697 19.9375 15.9948 19.9375 15.8125V13.75C19.9375 13.5677 19.865 13.3928 19.7361 13.2639ZM13.0625 17.1875C13.0625 17.7345 12.8452 18.2591 12.4584 18.6459C12.0716 19.0327 11.547 19.25 11 19.25C10.453 19.25 9.92839 19.0327 9.54159 18.6459C9.1548 18.2591 8.9375 17.7345 8.9375 17.1875V16.5H13.0625V17.1875ZM18.5625 15.125H3.4375V14.0346L5.29856 12.1736C5.4275 12.0447 5.49996 11.8698 5.5 11.6875V8.9375C5.5 7.47881 6.07946 6.07986 7.11091 5.04841C8.14236 4.01696 9.54131 3.4375 11 3.4375C12.4587 3.4375 13.8576 4.01696 14.8891 5.04841C15.9205 6.07986 16.5 7.47881 16.5 8.9375V11.6875C16.5 11.8698 16.5725 12.0447 16.7014 12.1736L18.5625 14.0346V15.125Z" fill="#8D8D8D"/>
</svg>
