<svg width="26" height="26" viewBox="0 0 26 26" fill="none" xmlns="http://www.w3.org/2000/svg">
<circle cx="12.9092" cy="12.5029" r="12.5" fill="#FF3364"/>
<path d="M18.784 7.23682H5.32568V8.65348H6.95485L9.2796 15.0462C9.4295 15.4555 9.70127 15.8091 10.0583 16.0592C10.4153 16.3094 10.8405 16.4441 11.2764 16.4452H17.3673V15.0285H11.2764C10.9796 15.0285 10.7118 14.8408 10.6106 14.5624L10.2649 13.6118H16.8333C17.4637 13.6118 18.0233 13.1882 18.1954 12.584L19.4654 8.13994C19.4951 8.03451 19.5001 7.92363 19.4798 7.81597C19.4596 7.70832 19.4147 7.6068 19.3487 7.51936C19.2828 7.43192 19.1975 7.36091 19.0995 7.3119C19.0015 7.26289 18.8936 7.23719 18.784 7.23682ZM16.8333 12.1951H9.74993L8.46218 8.65348H17.8455L16.8333 12.1951Z" fill="white"/>
<path d="M11.3467 19.2786C11.9335 19.2786 12.4092 18.8029 12.4092 18.2161C12.4092 17.6293 11.9335 17.1536 11.3467 17.1536C10.7599 17.1536 10.2842 17.6293 10.2842 18.2161C10.2842 18.8029 10.7599 19.2786 11.3467 19.2786Z" fill="white"/>
<path d="M15.5967 19.2786C16.1835 19.2786 16.6592 18.8029 16.6592 18.2161C16.6592 17.6293 16.1835 17.1536 15.5967 17.1536C15.0099 17.1536 14.5342 17.6293 14.5342 18.2161C14.5342 18.8029 15.0099 19.2786 15.5967 19.2786Z" fill="white"/>
</svg>
