<svg width="56" height="56" viewBox="0 0 56 56" fill="none" xmlns="http://www.w3.org/2000/svg">
<path d="M28 4.66669C15.12 4.66669 4.66666 15.12 4.66666 28C4.66666 40.88 15.12 51.3334 28 51.3334C40.88 51.3334 51.3333 40.88 51.3333 28C51.3333 15.12 40.88 4.66669 28 4.66669ZM16.4967 42.6534C17.5 40.5534 23.6133 38.5 28 38.5C32.3867 38.5 38.5233 40.5534 39.5033 42.6534C36.33 45.1734 32.34 46.6667 28 46.6667C23.66 46.6667 19.67 45.1734 16.4967 42.6534ZM42.84 39.27C39.5033 35.21 31.4067 33.8334 28 33.8334C24.5933 33.8334 16.4967 35.21 13.16 39.27C10.6812 36.0356 9.33637 32.075 9.33332 28C9.33332 17.71 17.71 9.33335 28 9.33335C38.29 9.33335 46.6667 17.71 46.6667 28C46.6667 32.2467 45.22 36.1434 42.84 39.27ZM28 14C23.4733 14 19.8333 17.64 19.8333 22.1667C19.8333 26.6934 23.4733 30.3334 28 30.3334C32.5267 30.3334 36.1667 26.6934 36.1667 22.1667C36.1667 17.64 32.5267 14 28 14ZM28 25.6667C26.0633 25.6667 24.5 24.1034 24.5 22.1667C24.5 20.23 26.0633 18.6667 28 18.6667C29.9367 18.6667 31.5 20.23 31.5 22.1667C31.5 24.1034 29.9367 25.6667 28 25.6667Z" fill="black"/>
</svg>
