<svg width="18" height="19" viewBox="0 0 18 19" fill="none" xmlns="http://www.w3.org/2000/svg">
<g clip-path="url(#clip0)">
<path d="M9 0.477783C4.02528 0.477783 0 4.50342 0 9.47778C0 14.4525 4.02564 18.4778 9 18.4778C13.9747 18.4778 18 14.4521 18 9.47778C18 4.50307 13.9743 0.477783 9 0.477783ZM9 17.0715C4.80259 17.0715 1.40625 13.6749 1.40625 9.47778C1.40625 5.28037 4.80287 1.88403 9 1.88403C13.1974 1.88403 16.5938 5.28065 16.5938 9.47778C16.5938 13.6752 13.1971 17.0715 9 17.0715Z" fill="#8D8D8D"/>
<path d="M9 8.0127C8.61166 8.0127 8.29688 8.32748 8.29688 8.71582V13.2437C8.29688 13.632 8.61166 13.9468 9 13.9468C9.38834 13.9468 9.70312 13.632 9.70312 13.2437V8.71582C9.70312 8.32748 9.38834 8.0127 9 8.0127Z" fill="#8D8D8D"/>
<path d="M9 7.15186C9.52424 7.15186 9.94922 6.72688 9.94922 6.20264C9.94922 5.6784 9.52424 5.25342 9 5.25342C8.47576 5.25342 8.05078 5.6784 8.05078 6.20264C8.05078 6.72688 8.47576 7.15186 9 7.15186Z" fill="#8D8D8D"/>
</g>
<defs>
<clipPath id="clip0">
<rect width="18" height="18" fill="white" transform="translate(0 0.477783)"/>
</clipPath>
</defs>
</svg>
