<svg width="57" height="57" viewBox="0 0 57 57" fill="none" xmlns="http://www.w3.org/2000/svg">
<path d="M49.875 9.5H4.74998V14.25H10.2125L18.0072 35.6844C18.5098 37.0569 19.4211 38.2424 20.6182 39.0811C21.8153 39.9198 23.2407 40.3714 24.7024 40.375H45.125V35.625H24.7024C23.7072 35.625 22.8095 34.9956 22.4699 34.0622L21.3109 30.875H43.3342C45.448 30.875 47.3242 29.4547 47.9014 27.4289L52.1597 12.5281C52.2593 12.1746 52.2758 11.8028 52.208 11.4419C52.1401 11.0809 51.9897 10.7405 51.7685 10.4474C51.5472 10.1542 51.2612 9.91609 50.9328 9.75175C50.6043 9.58741 50.2423 9.50125 49.875 9.5ZM43.3342 26.125H19.5842L15.2665 14.25H46.7281L43.3342 26.125Z" fill="black"/>
<path d="M24.9375 49.875C26.905 49.875 28.5 48.28 28.5 46.3125C28.5 44.345 26.905 42.75 24.9375 42.75C22.97 42.75 21.375 44.345 21.375 46.3125C21.375 48.28 22.97 49.875 24.9375 49.875Z" fill="black"/>
<path d="M39.1875 49.875C41.155 49.875 42.75 48.28 42.75 46.3125C42.75 44.345 41.155 42.75 39.1875 42.75C37.22 42.75 35.625 44.345 35.625 46.3125C35.625 48.28 37.22 49.875 39.1875 49.875Z" fill="black"/>
</svg>
