<svg width="19" height="20" viewBox="0 0 19 20" fill="none" xmlns="http://www.w3.org/2000/svg">
<g clip-path="url(#clip0)">
<path fill-rule="evenodd" clip-rule="evenodd" d="M1.21852 5.67561C2.64999 2.3504 5.92982 0.179932 9.56756 0.179932C13.71 0.179932 17.331 2.98401 18.3697 6.99734C18.4467 7.29393 18.2684 7.59675 17.9718 7.67372C17.6751 7.75055 17.3723 7.57239 17.2955 7.27566C16.3832 3.75157 13.2089 1.2935 9.56756 1.2935C6.38818 1.2935 3.52409 3.17594 2.25715 6.06685L2.67043 5.89247C2.95266 5.7736 3.27795 5.90595 3.39681 6.18818C3.51568 6.47056 3.38333 6.7957 3.10095 6.91457L1.43567 7.61748C1.15343 7.73634 0.828145 7.60399 0.709279 7.32176L0.00651925 5.65647C-0.112347 5.37424 0.0200004 5.04895 0.30238 4.93008C0.584615 4.81122 0.909757 4.94357 1.02862 5.2258L1.21852 5.67561ZM11.2801 6.26429V8.26674C11.2801 8.66016 10.8599 8.98183 10.4282 8.73888L9.46131 8.25297L8.44718 8.7625C8.07449 8.9495 7.64454 8.67002 7.64483 8.26674L7.64251 6.26429H6.23206V12.6484H12.6904V6.26429H11.2801ZM10.1665 6.26429H8.75608V7.36641C9.52741 6.97879 9.39028 6.97632 10.1665 7.36641V6.26429ZM5.67542 5.15071C5.36796 5.15071 5.11863 5.40004 5.11863 5.7075V13.2052C5.11863 13.5127 5.36796 13.762 5.67542 13.762H13.2473C13.5548 13.762 13.8041 13.5127 13.8041 13.2052V5.7075C13.8041 5.40004 13.5548 5.15071 13.2473 5.15071H5.67542ZM18.9193 13.4818C19.0382 13.764 18.9058 14.0893 18.6234 14.2082C18.3412 14.327 18.0159 14.1947 17.897 13.9125L17.7073 13.4626C16.2758 16.7879 12.9958 18.9583 9.35824 18.9583C5.21576 18.9583 1.59483 16.1542 0.555913 12.1409C0.479085 11.8443 0.657239 11.5414 0.953969 11.4645C1.2507 11.3877 1.55352 11.5659 1.63035 11.8626C2.54243 15.3867 5.71688 17.8447 9.35824 17.8447C12.5376 17.8447 15.4017 15.9623 16.6687 13.0713L16.2554 13.2458C15.9731 13.3647 15.6479 13.2323 15.529 12.9499C15.4101 12.6677 15.5425 12.3426 15.8249 12.2235L17.4901 11.5208C17.7724 11.4018 18.0977 11.5343 18.2165 11.8165L18.9193 13.4818Z" fill="#8D8D8D"/>
</g>
<defs>
<clipPath id="clip0">
<rect width="19" height="19" fill="white" transform="translate(0 0.0686035)"/>
</clipPath>
</defs>
</svg>
