<svg width="57" height="56" viewBox="0 0 57 56" fill="none" xmlns="http://www.w3.org/2000/svg">
<path d="M6.94562 28.3943H9.1412V43.4938C9.1412 45.873 11.1106 47.8079 13.5324 47.8079H39.8793C42.301 47.8079 44.2705 45.873 44.2705 43.4938V28.3943H46.466C46.9002 28.3943 47.3246 28.2677 47.6856 28.0307C48.0466 27.7936 48.3279 27.4568 48.494 27.0627C48.6602 26.6686 48.7037 26.235 48.619 25.8166C48.5343 25.3982 48.3253 25.0139 48.0183 24.7122L28.2581 5.29871C28.0544 5.09822 27.8124 4.93917 27.5461 4.83064C27.2797 4.72212 26.9942 4.66626 26.7058 4.66626C26.4175 4.66626 26.1319 4.72212 25.8656 4.83064C25.5992 4.93917 25.3573 5.09822 25.1536 5.29871L5.39334 24.7122C5.08638 25.0139 4.87735 25.3982 4.79267 25.8166C4.70799 26.235 4.75147 26.6686 4.91761 27.0627C5.08375 27.4568 5.36509 27.7936 5.72607 28.0307C6.08704 28.2677 6.51144 28.3943 6.94562 28.3943ZM26.7058 9.87384L39.8793 22.8162V32.7085L39.8815 43.4938H13.5324V22.8162L26.7058 9.87384Z" fill="black"/>
<path d="M26.7058 39.1796C34.836 39.1796 37.4663 31.5458 37.5739 31.2222L33.4023 29.8827C33.3847 29.9323 31.6876 34.8655 26.7058 34.8655C21.7921 34.8655 20.0752 30.0747 20.0071 29.8698L15.8377 31.2222C15.9453 31.5458 18.5756 39.1796 26.7058 39.1796Z" fill="black"/>
</svg>
