<svg width="19" height="20" viewBox="0 0 19 20" fill="none" xmlns="http://www.w3.org/2000/svg">
<g clip-path="url(#clip0)">
<path d="M17.6983 6.23395L17.6843 6.20964C17.6648 6.16923 17.6423 6.13052 17.6172 6.09375L14.974 1.52387C14.7835 1.19471 14.4291 0.990234 14.0488 0.990234H4.95191C4.57106 0.990234 4.21629 1.19519 4.02596 1.52524L1.3396 6.18567C1.31541 6.22768 1.29797 6.27161 1.28565 6.31626C1.24783 6.41834 1.22705 6.52867 1.22705 6.64378V18.6808C1.22705 19.4028 1.81446 19.9902 2.53646 19.9902H16.4638C17.1858 19.9902 17.7732 19.4028 17.7732 18.6808V6.59966C17.7732 6.58352 17.7727 6.56749 17.7719 6.55153C17.7794 6.4444 17.7562 6.33392 17.6983 6.23395ZM10.076 2.10393H14.0229L16.1022 5.69883H10.076V2.10393ZM4.97785 2.10393H8.96233V5.69883H2.90566L4.97785 2.10393ZM16.6595 18.6808C16.6595 18.7887 16.5717 18.8765 16.4638 18.8765H2.53646C2.42854 18.8765 2.34074 18.7887 2.34074 18.6808V6.81252H16.6595V18.6808Z" fill="#8D8D8D"/>
<path d="M12.0278 11.0107C11.8103 10.7933 11.4577 10.7933 11.2403 11.0107L8.75385 13.4971L7.79776 12.541C7.58034 12.3236 7.22773 12.3236 7.01026 12.541C6.7928 12.7585 6.7928 13.1111 7.01026 13.3285L8.36016 14.6784C8.46889 14.7871 8.61143 14.8415 8.75389 14.8415C8.89635 14.8415 9.03893 14.7871 9.14762 14.6784L12.0278 11.7982C12.2452 11.5808 12.2452 11.2282 12.0278 11.0107Z" fill="#8D8D8D"/>
</g>
<defs>
<clipPath id="clip0">
<rect width="19" height="19" fill="white" transform="translate(0 0.990234)"/>
</clipPath>
</defs>
</svg>
