<svg width="19" height="20" viewBox="0 0 19 20" fill="none" xmlns="http://www.w3.org/2000/svg">
<path d="M14.6737 6.64347C14.6737 6.26751 14.3689 5.96276 13.993 5.96276H5.00754C4.63158 5.96276 4.32683 6.26751 4.32683 6.64347C4.32683 7.01943 4.63158 7.32419 5.00754 7.32419H13.993C14.3689 7.32419 14.6737 7.01943 14.6737 6.64347ZM10.181 10.1832C10.181 9.80723 9.87622 9.50248 9.50026 9.50248H5.00754C4.63158 9.50248 4.32683 9.80723 4.32683 10.1832C4.32683 10.5592 4.63158 10.8639 5.00754 10.8639H9.50026C9.87622 10.8639 10.181 10.5592 10.181 10.1832ZM9.9816 18.5187L12.5051 15.9952H17.5327C17.9087 15.9952 18.2134 15.6904 18.2134 15.3145V1.97246C18.2134 1.5965 17.9087 1.29175 17.5327 1.29175H1.46782C1.09187 1.29175 0.787109 1.5965 0.787109 1.97246V15.3145C0.787109 15.6904 1.09187 15.9952 1.46782 15.9952H6.49545L9.01893 18.5187C9.28478 18.7845 9.71578 18.7845 9.9816 18.5187ZM2.14854 2.65318H16.852V14.6338H12.2231C12.0426 14.6338 11.8694 14.7055 11.7418 14.8331L9.50026 17.0747L7.25874 14.8331C7.1311 14.7055 6.95793 14.6338 6.7774 14.6338H2.14854V2.65318Z" fill="#8D8D8D"/>
</svg>
