<svg width="18" height="20" viewBox="0 0 18 20" fill="none" xmlns="http://www.w3.org/2000/svg">
<path d="M3.59346 17.5479C3.40362 17.5479 3.21187 17.5046 3.02977 17.4162C2.54879 17.1827 2.25 16.6905 2.25 16.1316V14.5784H1.61719C0.725484 14.5784 0 13.8126 0 12.8713V3.2229C0 2.28166 0.725484 1.51587 1.61719 1.51587H16.3828C17.2745 1.51587 18 2.28166 18 3.2229V12.8713C18 13.8126 17.2745 14.5784 16.3828 14.5784H6.98108L4.49058 17.1767C4.48109 17.1865 4.47131 17.196 4.46122 17.2052C4.21144 17.4312 3.90505 17.5479 3.59346 17.5479ZM1.61719 2.70337C1.34578 2.70337 1.125 2.93642 1.125 3.2229V12.8713C1.125 13.1578 1.34578 13.3909 1.61719 13.3909H2.8125C3.12314 13.3909 3.375 13.6567 3.375 13.9846V16.1316C3.375 16.2578 3.45322 16.3147 3.49988 16.3373C3.54459 16.359 3.63083 16.3835 3.71788 16.3132L6.3546 13.5624C6.45989 13.4525 6.60196 13.3909 6.75 13.3909H16.3828C16.6542 13.3909 16.875 13.1579 16.875 12.8714V3.22294C16.875 2.93645 16.6542 2.70341 16.3828 2.70341H1.61719V2.70337Z" fill="#8D8D8D"/>
<path d="M10.8575 11.4368C10.7832 11.4368 10.7086 11.4179 10.6405 11.3797L9.00021 10.4594L7.35992 11.3797C7.20431 11.467 7.01525 11.4534 6.87236 11.3446C6.72947 11.2357 6.65763 11.0506 6.68711 10.8672L7.00152 8.91084L5.67053 7.52627C5.54561 7.39631 5.50111 7.20293 5.55564 7.02697C5.61016 6.85101 5.75432 6.72275 5.92784 6.69585L7.76307 6.41124L8.58472 4.63453C8.66225 4.46689 8.82348 4.3606 9.00018 4.3606C9.17688 4.3606 9.33815 4.46692 9.41564 4.63453L10.2373 6.41124L12.0725 6.69585C12.246 6.72275 12.3902 6.85101 12.4447 7.02697C12.4993 7.20293 12.4548 7.39631 12.3298 7.52627L10.9988 8.91084L11.3133 10.8672C11.3427 11.0506 11.2709 11.2357 11.128 11.3446C11.0477 11.4057 10.9528 11.4368 10.8575 11.4368ZM9.00021 9.41874C9.07479 9.41874 9.14937 9.43778 9.21722 9.47584L10.2445 10.0522L10.047 8.82336C10.0217 8.66625 10.0707 8.506 10.1783 8.39415L11.0195 7.51907L9.86165 7.33951C9.71064 7.31609 9.58032 7.21553 9.51337 7.07074L9.00021 5.96108L8.48705 7.07074C8.4201 7.21553 8.28978 7.31609 8.13877 7.33951L6.98092 7.51907L7.82216 8.39415C7.92968 8.506 7.97869 8.66625 7.95343 8.82336L7.75596 10.0522L8.7832 9.47584C8.85105 9.43778 8.92563 9.41874 9.00021 9.41874Z" fill="#8D8D8D"/>
</svg>
