<svg width="57" height="56" viewBox="0 0 57 56" fill="none" xmlns="http://www.w3.org/2000/svg">
<path d="M11.875 5.35034C9.25537 5.35034 7.125 7.44334 7.125 10.017V38.017C7.125 40.5907 9.25537 42.6837 11.875 42.6837H20.3918L28.5 50.6497L36.6082 42.6837H45.125C47.7446 42.6837 49.875 40.5907 49.875 38.017V10.017C49.875 7.44334 47.7446 5.35034 45.125 5.35034H11.875ZM45.125 38.017H34.6418L28.5 44.051L22.3582 38.017H11.875V10.017H45.125V38.017Z" fill="black"/>
<path d="M16.625 17.017H40.375V21.6837H16.625V17.017ZM16.625 26.3504H33.25V31.017H16.625V26.3504Z" fill="black"/>
</svg>
