<svg width="19" height="20" viewBox="0 0 19 20" fill="none" xmlns="http://www.w3.org/2000/svg">
<g clip-path="url(#clip0)">
<path d="M17.0232 16.1319L16.1747 5.4401C16.1218 4.75124 15.5393 4.21167 14.8484 4.21167H13.1725V4.13634C13.1725 2.11117 11.525 0.463623 9.49982 0.463623C7.47469 0.463623 5.82714 2.11117 5.82714 4.1363V4.21163H4.15121C3.46034 4.21163 2.87776 4.7512 2.82507 5.43862L1.97626 16.1333C1.91058 16.9896 2.20764 17.8421 2.79122 18.4722C3.3748 19.1022 4.20208 19.4636 5.06091 19.4636H13.9387C14.7974 19.4636 15.6248 19.1023 16.2083 18.4722C16.7919 17.8421 17.0889 16.9896 17.0232 16.1319ZM6.94001 4.1363C6.94001 2.72485 8.08836 1.57653 9.49978 1.57653C10.9112 1.57653 12.0595 2.72488 12.0595 4.1363V4.21163H6.94001V4.1363ZM15.3919 17.716C15.0127 18.1253 14.4966 18.3507 13.9387 18.3507H5.06094C4.50297 18.3507 3.98692 18.1253 3.60774 17.716C3.22859 17.3066 3.04327 16.7748 3.08587 16.2199L3.9346 5.52516C3.94321 5.41264 4.03836 5.32454 4.15121 5.32454H5.82714V6.69518C5.82714 7.00248 6.07629 7.25163 6.38359 7.25163C6.6909 7.25163 6.94005 7.00248 6.94005 6.69518V5.32454H12.0596V6.69518C12.0596 7.00248 12.3088 7.25163 12.6161 7.25163C12.9234 7.25163 13.1725 7.00248 13.1725 6.69518V5.32454H14.8485C14.9613 5.32454 15.0564 5.41264 15.0652 5.52664L15.9137 16.2184C15.9563 16.7748 15.771 17.3066 15.3919 17.716Z" fill="#8D8D8D"/>
<path d="M10.3595 12.0382L12.0471 10.3506C12.2644 10.1332 12.2644 9.78093 12.0472 9.56362C11.8299 9.34631 11.4775 9.34631 11.2602 9.56362L9.57261 11.2512L7.88498 9.56362C7.66771 9.34631 7.31536 9.34631 7.09804 9.56362C6.88073 9.78093 6.88073 10.1332 7.09804 10.3506L8.78567 12.0382L7.09804 13.7258C6.88073 13.9431 6.88073 14.2954 7.09804 14.5127C7.2067 14.6214 7.34912 14.6758 7.49148 14.6758C7.63383 14.6758 7.77629 14.6214 7.88491 14.5127L9.57253 12.8251L11.2602 14.5127C11.3688 14.6214 11.5112 14.6758 11.6536 14.6758C11.796 14.6758 11.9384 14.6214 12.047 14.5127C12.2643 14.2954 12.2643 13.9431 12.047 13.7258L10.3595 12.0382Z" fill="#8D8D8D"/>
</g>
<defs>
<clipPath id="clip0">
<rect width="19" height="19" fill="white" transform="translate(0 0.463623)"/>
</clipPath>
</defs>
</svg>
