<svg width="37" height="26" viewBox="0 0 37 26" fill="none" xmlns="http://www.w3.org/2000/svg">
<rect x="0.685547" y="0.654541" width="35.915" height="25" rx="3" fill="#FF3364"/>
<path d="M25.0174 7.48779H11.5591V8.90446H13.1882L15.513 15.2972C15.6629 15.7065 15.9347 16.0601 16.2917 16.3102C16.6487 16.5604 17.0739 16.695 17.5098 16.6961H23.6007V15.2795H17.5098C17.213 15.2795 16.9452 15.0918 16.844 14.8134L16.4983 13.8628H23.0667C23.6971 13.8628 24.2567 13.4392 24.4288 12.835L25.6988 8.39092C25.7285 8.28548 25.7335 8.1746 25.7132 8.06695C25.693 7.9593 25.6481 7.85778 25.5821 7.77034C25.5162 7.68289 25.4309 7.61189 25.3329 7.56288C25.2349 7.51386 25.127 7.48817 25.0174 7.48779ZM23.0667 12.4461H15.9833L14.6956 8.90446H24.0789L23.0667 12.4461Z" fill="white"/>
<path d="M17.5801 19.5295C18.1669 19.5295 18.6426 19.0538 18.6426 18.467C18.6426 17.8802 18.1669 17.4045 17.5801 17.4045C16.9933 17.4045 16.5176 17.8802 16.5176 18.467C16.5176 19.0538 16.9933 19.5295 17.5801 19.5295Z" fill="white"/>
<path d="M21.8301 19.5295C22.4169 19.5295 22.8926 19.0538 22.8926 18.467C22.8926 17.8802 22.4169 17.4045 21.8301 17.4045C21.2433 17.4045 20.7676 17.8802 20.7676 18.467C20.7676 19.0538 21.2433 19.5295 21.8301 19.5295Z" fill="white"/>
</svg>
