<svg width="20" height="20" viewBox="0 0 20 20" fill="none" xmlns="http://www.w3.org/2000/svg">
<path d="M7.13965 7.71704H8.32715V14.842H7.13965V7.71704Z" fill="#656565"/>
<path d="M10.7021 7.71704H11.8896V14.842H10.7021V7.71704Z" fill="#656565"/>
<path d="M2.38965 4.15454V5.34204H3.57715V17.217C3.57715 17.532 3.70226 17.834 3.92496 18.0567C4.14766 18.2794 4.4497 18.4045 4.76465 18.4045H14.2646C14.5796 18.4045 14.8816 18.2794 15.1043 18.0567C15.327 17.834 15.4521 17.532 15.4521 17.217V5.34204H16.6396V4.15454H2.38965ZM4.76465 17.217V5.34204H14.2646V17.217H4.76465Z" fill="#656565"/>
<path d="M7.13965 1.77954H11.8896V2.96704H7.13965V1.77954Z" fill="#656565"/>
</svg>
